<svg width="143" height="29" viewBox="0 0 143 29" fill="none" xmlns="http://www.w3.org/2000/svg">
<path d="M0.876465 5.80467V28.0946H4.63499V11.954H4.87789L12.5995 28.0619H15.7188L23.4404 11.9649H23.6833V28.0946H27.4418V5.80467H22.6478L14.3125 23.1316H14.0057L5.6705 5.80467H0.876465Z" fill="white"/>
<path d="M42.0093 28.432C46.2919 28.432 49.3218 26.6362 50.1911 23.9152L46.5732 23.3602C45.8829 24.9383 44.2209 25.7437 42.0476 25.7437C38.7749 25.7437 36.576 23.937 36.4738 20.7154H50.434V19.5617C50.434 13.5212 46.1897 11.1595 41.7408 11.1595C36.2692 11.1595 32.6641 14.7076 32.6641 19.8447C32.6641 25.0363 36.2181 28.432 42.0093 28.432ZM36.4866 18.2774C36.64 15.9048 38.6598 13.8478 41.7664 13.8478C44.7323 13.8478 46.6755 15.7198 46.6883 18.2774H36.4866Z" fill="white"/>
<path d="M69.3896 15.4586C68.597 12.8573 66.2064 11.1595 61.962 11.1595C57.526 11.1595 54.3811 13.1512 54.3811 16.1116C54.3811 18.4842 56.0686 20.0624 59.7504 20.7589L63.0743 21.3793C64.9663 21.7385 65.8484 22.4568 65.8484 23.5017C65.8484 24.7968 64.2248 25.809 61.7192 25.809C59.4308 25.809 57.9606 24.971 57.5004 23.3275L53.8058 23.8064C54.445 26.7668 57.3342 28.432 61.7447 28.432C66.4876 28.432 69.7731 26.2879 69.7731 23.2622C69.7731 20.9004 68.0089 19.442 64.4038 18.7346L61.2845 18.1251C59.124 17.6897 58.1907 17.0694 58.2035 15.9374C58.1907 14.6532 59.8271 13.7389 62.0004 13.7389C64.3782 13.7389 65.4777 14.86 65.9251 15.981L69.3896 15.4586Z" fill="white"/>
<path d="M83.1421 11.3771H79.1151V7.37193H75.2927V11.3771H72.4162V13.9893H75.2927V23.8608C75.2799 26.8974 78.0029 28.3667 81.0199 28.3123C82.2344 28.3014 83.0526 28.1055 83.5 27.964L82.8097 25.2757C82.554 25.3192 82.081 25.4172 81.4674 25.4172C80.2273 25.4172 79.1151 25.0689 79.1151 23.186V13.9893H83.1421V11.3771Z" fill="white"/>
<path d="M95.4308 28.432C100.966 28.432 104.584 24.9818 104.584 19.8121C104.584 14.6096 100.966 11.1595 95.4308 11.1595C89.8953 11.1595 86.2774 14.6096 86.2774 19.8121C86.2774 24.9818 89.8953 28.432 95.4308 28.432ZM95.4436 25.7002C91.8257 25.7002 90.1382 23.0119 90.1382 19.8012C90.1382 16.6014 91.8257 13.8804 95.4436 13.8804C99.0359 13.8804 100.723 16.6014 100.723 19.8012C100.723 23.0119 99.0359 25.7002 95.4436 25.7002Z" fill="white"/>
<path d="M108.057 7.66216H109.114V4.75983H111.023C111.099 4.75983 111.172 4.75983 111.244 4.7562L113.085 7.66216H114.313L112.34 4.59294C113.452 4.27006 113.972 3.49731 113.972 2.51052C113.972 1.19721 113.051 0.232187 111.006 0.232187H108.057V7.66216ZM109.114 3.94717V1.03033H110.972C112.386 1.03033 112.932 1.61805 112.932 2.51052C112.932 3.40299 112.386 3.94717 110.989 3.94717H109.114Z" fill="white"/>
<path d="M119.721 5.38383C119.721 6.42867 118.784 6.90756 118.034 6.90756C117.199 6.90756 116.602 6.38514 116.602 5.57248V2.08968H115.596V5.63053C115.596 7.05267 116.483 7.73472 117.71 7.73472C118.699 7.73472 119.346 7.28486 119.653 6.7189H119.721V7.66216H120.727V2.08968H119.721V5.38383Z" fill="white"/>
<path d="M127.205 3.33768C126.89 2.5468 126.183 2.01712 124.887 2.01712C123.506 2.01712 122.484 2.68466 122.484 3.62792C122.484 4.39704 123.021 4.9122 124.222 5.15164L125.313 5.36932C125.974 5.49992 126.285 5.76839 126.285 6.15295C126.285 6.63183 125.688 7.02365 124.751 7.02365C123.928 7.02365 123.413 6.72253 123.234 6.12393L122.279 6.32709C122.514 7.27398 123.43 7.77826 124.768 7.77826C126.289 7.77826 127.325 7.07081 127.325 6.10941C127.325 5.33304 126.754 4.84327 125.586 4.6002L124.614 4.39704C123.839 4.23378 123.489 4.01248 123.489 3.58438C123.489 3.1055 124.086 2.75722 124.887 2.75722C125.765 2.75722 126.127 3.1708 126.302 3.55536L127.205 3.33768Z" fill="white"/>
<path d="M133.475 3.33768C133.159 2.5468 132.452 2.01712 131.157 2.01712C129.776 2.01712 128.753 2.68466 128.753 3.62792C128.753 4.39704 129.29 4.9122 130.492 5.15164L131.583 5.36932C132.243 5.49992 132.554 5.76839 132.554 6.15295C132.554 6.63183 131.958 7.02365 131.02 7.02365C130.198 7.02365 129.682 6.72253 129.503 6.12393L128.549 6.32709C128.783 7.27398 129.699 7.77826 131.037 7.77826C132.559 7.77826 133.594 7.07081 133.594 6.10941C133.594 5.33304 133.023 4.84327 131.856 4.6002L130.884 4.39704C130.108 4.23378 129.759 4.01248 129.759 3.58438C129.759 3.1055 130.356 2.75722 131.157 2.75722C132.034 2.75722 132.397 3.1708 132.571 3.55536L133.475 3.33768Z" fill="white"/>
<path d="M135.108 7.66216H136.114V2.08968H135.108V7.66216ZM135.619 1.16093C136.011 1.16093 136.335 0.899724 136.335 0.580467C136.335 0.26121 136.011 0 135.619 0C135.227 0 134.903 0.26121 134.903 0.580467C134.903 0.899724 135.227 1.16093 135.619 1.16093Z" fill="white"/>
<path d="M139.882 7.79277C141.024 7.79277 141.62 7.27035 141.825 6.90756H141.876V7.66216H142.882V3.99071C142.882 2.22029 141.297 2.01712 140.461 2.01712C139.473 2.01712 138.348 2.30736 137.836 3.32317L138.791 3.61341C139.012 3.20708 139.537 2.77173 140.495 2.77173C141.42 2.77173 141.876 3.18894 141.876 3.90364V3.93266C141.876 4.34625 141.382 4.30997 140.189 4.44057C138.974 4.5748 137.649 4.80336 137.649 6.08039C137.649 7.16877 138.637 7.79277 139.882 7.79277ZM140.035 7.02365C139.234 7.02365 138.655 6.7189 138.655 6.12393C138.655 5.4709 139.353 5.26774 140.137 5.18067C140.564 5.13713 141.706 5.03555 141.876 4.86141V5.64504C141.876 6.3416 141.228 7.02365 140.035 7.02365Z" fill="white"/>
</svg>
